<?xml version="1.0" encoding="UTF-8"?>
<svg id="Layer_3" data-name="Layer 3" xmlns="http://www.w3.org/2000/svg" xmlns:xlink="http://www.w3.org/1999/xlink" viewBox="0 0 600 600">
  <defs>
    <style>
      .cls-1 {
        stroke: #fc7a8c;
        stroke-dasharray: 0 0 22.91 22.91;
        stroke-miterlimit: 10;
        stroke-width: 2.25px;
      }

      .cls-1, .cls-2 {
        fill: none;
      }

      .cls-2, .cls-3 {
        stroke-width: 0px;
      }

      .cls-3 {
        fill: #e5343e;
      }

      .cls-4 {
        clip-path: url(#clippath);
      }
    </style>
    <clipPath id="clippath">
      <path class="cls-2" d="M526.68,2.65h-197.48c-.76,0-1.42.51-1.65,1.24-3.69,11.7-14.67,20.25-27.55,20.25s-23.86-8.55-27.55-20.25c-.23-.73-.89-1.24-1.65-1.24H73.32c-16.18,0-29.3,13.12-29.3,29.3v238.85c0,.76.51,1.42,1.24,1.65,11.7,3.69,20.25,14.67,20.25,27.55s-8.55,23.86-20.25,27.55c-.73.23-1.24.89-1.24,1.65v238.85c0,16.18,13.12,29.3,29.3,29.3h453.36c16.18,0,29.3-13.12,29.3-29.3v-238.85c0-.76-.51-1.42-1.24-1.65-11.7-3.69-20.25-14.67-20.25-27.55s8.55-23.86,20.25-27.55c.73-.23,1.24-.89,1.24-1.65V31.95c0-16.18-13.12-29.3-29.3-29.3Z"/>
    </clipPath>
  </defs>
  <g class="cls-4">
    <path class="cls-3" d="M526.68,2.65h-197.48c-.76,0-1.42.51-1.65,1.24-3.69,11.7-14.67,20.25-27.55,20.25s-23.86-8.55-27.55-20.25c-.23-.73-.89-1.24-1.65-1.24H73.32c-16.18,0-29.3,13.12-29.3,29.3v238.85c0,.76.51,1.42,1.24,1.65,11.7,3.69,20.25,14.67,20.25,27.55s-8.55,23.86-20.25,27.55c-.73.23-1.24.89-1.24,1.65v238.85c0,16.18,13.12,29.3,29.3,29.3h453.36c16.18,0,29.3-13.12,29.3-29.3v-238.85c0-.76-.51-1.42-1.24-1.65-11.7-3.69-20.25-14.67-20.25-27.55s8.55-23.86,20.25-27.55c.73-.23,1.24-.89,1.24-1.65V31.95c0-16.18-13.12-29.3-29.3-29.3Z"/>
    <line class="cls-1" x1="-32.14" y1="281.87" x2="643.59" y2="281.87"/>
  </g>
</svg>